<svg width="69" height="89" viewBox="0 0 69 89" fill="none" xmlns="http://www.w3.org/2000/svg">
<path fill-rule="evenodd" clip-rule="evenodd" d="M55.8979 20.9272H14.8873C13.4909 20.8458 12.1186 21.3172 11.0671 22.2394C10.0156 23.1616 9.36935 24.4605 9.2681 25.8553L13.6058 84.0568C13.5926 84.374 13.642 84.6907 13.7513 84.9887C13.8606 85.2868 14.0277 85.5603 14.2428 85.7937C14.458 86.0272 14.7171 86.2159 15.0053 86.3491C15.2935 86.4824 15.6052 86.5575 15.9224 86.5701H52.2996C53.6305 86.5701 53.0883 84.3032 53.0883 82.9234L54.8134 76.0479V69.8637L57.8696 56.1634L61.5171 26.2003C61.5115 25.4799 61.3598 24.7681 61.071 24.1081C60.7822 23.4481 60.3624 22.8536 59.837 22.3606C59.3116 21.8676 58.6916 21.4863 58.0145 21.2399C57.3374 20.9935 56.6173 20.8871 55.8979 20.9272Z" fill="white"/>
<path fill-rule="evenodd" clip-rule="evenodd" d="M56.4387 45.2894L11.2877 45.7821L13.2594 67.3182H53.777L56.4387 45.2894Z" fill="#808285"/>
<path d="M14.7878 88.1151H51.165C51.5608 88.1249 51.9543 88.051 52.3196 87.8981C52.6848 87.7452 53.0136 87.5168 53.2845 87.228C53.6926 86.6571 53.9741 86.0057 54.1101 85.3173C54.09 85.4137 54.2461 84.6289 54.1101 85.3173L58.8544 55.8849L62.502 25.6754C62.4639 24.6979 62.2334 23.7375 61.8238 22.8492C61.4141 21.9608 60.8332 21.162 60.1145 20.4983C59.3957 19.8346 58.5532 19.3191 57.6349 18.9813C56.7167 18.6434 55.7408 18.4899 54.7632 18.5295H13.7526C12.775 18.4899 11.7992 18.6434 10.881 18.9813C9.96276 19.3191 9.12014 19.8346 8.40137 20.4983C7.6826 21.162 7.10175 21.9608 6.69208 22.8492C6.28241 23.7375 6.05196 24.6979 6.01389 25.6754L10.3516 83.6305C10.3641 84.8075 10.834 85.9335 11.6618 86.7704C12.4897 87.6073 13.6107 88.0896 14.7878 88.1151ZM49.9327 83.9261H14.7878C14.7878 83.9261 14.7878 83.9261 14.7878 83.5319C14.7878 83.1376 10.4501 25.5768 10.4501 25.5768C10.5611 24.7358 10.9917 23.9697 11.6525 23.4375C12.3132 22.9054 13.1535 22.6479 13.9991 22.7185H55.0097C55.8478 22.6468 56.6817 22.8975 57.3412 23.4195C58.0007 23.9415 58.4362 24.6955 58.5587 25.5275L54.9111 55.0964L50.0805 83.3348C50.0588 82.9573 50.0588 83.7123 50.0805 83.3348L49.9327 83.9261Z" fill="#323232"/>
<path fill-rule="evenodd" clip-rule="evenodd" d="M50.7007 2.86975H19.8709C17.619 2.86975 16.6539 4.48032 15.4743 6.49352L14.3484 8.90933C14.3752 9.10065 14.479 9.27508 14.6386 9.39677C14.7981 9.51845 15.0013 9.57816 15.2063 9.56365H55.5262C56.0087 9.56365 56.4377 9.26164 56.4377 8.90933L55.3118 6.5942C54.6683 4.78232 53.1671 2.86975 50.7007 2.86975Z" fill="white"/>
<path d="M21.1454 3.54828C19.0751 3.54828 18.1879 5.12529 17.1035 7.09655L16.0683 9.46204C16.093 9.64937 16.1885 9.82018 16.3352 9.93932C16.4819 10.0585 16.6686 10.1169 16.857 10.1027H53.9243C54.3679 10.1027 54.7622 9.80701 54.7622 9.46204L53.7271 7.19514C52.9384 5.421 51.5582 3.54828 49.488 3.54828H21.1454ZM21.1454 0H49.2909C50.9751 0.0954029 52.5913 0.696804 53.9281 1.72556C55.2649 2.75432 56.26 4.16252 56.7832 5.76593L57.769 7.93433L58.114 8.67352V9.46204C58.1012 10.0251 57.9776 10.5802 57.7502 11.0955C57.5228 11.6108 57.196 12.0762 56.7886 12.4652C56.3812 12.8542 55.9012 13.1592 55.3759 13.3626C54.8506 13.5661 54.2903 13.6641 53.7271 13.651H16.6599C16.0967 13.6641 15.5364 13.5661 15.0111 13.3626C14.4858 13.1592 14.0057 12.8542 13.5983 12.4652C13.1909 12.0762 12.8642 11.6108 12.6367 11.0955C12.4093 10.5802 12.2857 10.0251 12.2729 9.46204V8.72285L12.5687 8.03291L13.6038 5.66735C15.0332 3.05542 16.8077 0 20.9482 0H21.1454Z" fill="#323232"/>
<path fill-rule="evenodd" clip-rule="evenodd" d="M58.1092 11.4789H10.5022C6.99318 11.4789 5.52672 14.7983 3.69367 19.0815L1.91301 24.4354C1.91301 24.8046 2.0565 25.1587 2.31187 25.4198C2.56723 25.6808 2.91354 25.8275 3.27468 25.8275H65.5985C65.9597 25.8275 66.306 25.6808 66.5614 25.4198C66.8167 25.1587 66.9602 24.8046 66.9602 24.4354L65.2319 19.5098C63.9226 15.5479 61.6182 11.4789 58.1092 11.4789Z" fill="white"/>
<path d="M11.9286 12.6158C8.62602 12.6158 7.24584 15.6713 5.52064 19.6138L3.84474 24.542C3.84474 24.8818 3.97979 25.2077 4.22013 25.448C4.46048 25.6883 4.7864 25.8233 5.1263 25.8233H63.7833C64.1232 25.8233 64.4491 25.6883 64.6894 25.448C64.9298 25.2077 65.0648 24.8818 65.0648 24.542L63.4382 20.0081C62.2059 16.5091 60.0371 12.7637 56.7345 12.7637L11.9286 12.6158ZM11.9286 9.01831H56.7345C61.0722 9.01831 64.6705 12.468 66.5929 18.8746L68.2195 23.3593V23.9506V24.6405C68.2195 25.9476 67.7002 27.2011 66.7758 28.1253C65.8514 29.0495 64.5976 29.5687 63.2903 29.5687H4.92916C3.62187 29.5687 2.36812 29.0495 1.44373 28.1253C0.519325 27.2011 7.62939e-06 25.9476 7.62939e-06 24.6405V24.0492V23.4578L1.62664 18.5296C3.64759 13.9464 5.81642 9.06757 11.4849 9.06757L11.9286 9.01831Z" fill="#323232"/>
</svg>
