<svg width="185" height="173" viewBox="0 0 185 173" fill="none" xmlns="http://www.w3.org/2000/svg">
<path fill-rule="evenodd" clip-rule="evenodd" d="M96.7808 65.2518C103.61 63.3421 110.854 63.5034 117.594 65.7154C124.334 67.9273 130.269 72.0904 134.647 77.6779C139.024 83.2655 141.649 90.0264 142.188 97.105C142.727 104.184 141.156 111.262 137.674 117.445C134.193 123.627 128.956 128.636 122.628 131.837C116.3 135.039 109.164 136.289 102.124 135.429C95.0836 134.57 88.4549 131.639 83.0766 127.008C77.6984 122.378 73.8123 116.255 71.91 109.415C69.3623 100.255 70.5505 90.458 75.2137 82.1775C79.8769 73.8969 87.6337 67.8094 96.7808 65.2518Z" fill="#E52629"/>
<path fill-rule="evenodd" clip-rule="evenodd" d="M118.057 97.099C122.42 101.066 120.675 110.979 114.089 111.671C109.045 112.142 106.998 101.988 109.461 98.1944C107.003 98.0247 104.562 98.7037 102.545 100.118C105.76 103.679 107.674 113.352 102.314 115.102C96.9531 116.852 93.1135 109.372 94.5061 103.96C91.3792 105.554 88.7138 106.762 88.969 109.54C89.2941 113.128 93.9389 114.944 96.3172 115.682C99.8167 116.729 103.12 116.328 105.772 118.232C108.423 120.137 111.328 127.048 107.582 128.09C103.835 129.132 104.988 124.719 103.391 122.883C101.794 121.048 99.4219 121.449 97.0758 121.014C91.564 119.801 80.9734 114.095 85.0758 105.961C86.7427 103.028 89.4107 100.796 92.5901 99.6747C93.9349 99.3007 95.6669 99.3888 97.2465 98.7423C98.826 98.0958 100.453 95.5713 102.979 94.6096C106.314 93.332 110.004 93.3396 113.334 94.6308C114.82 93.4221 116.61 92.6468 118.507 92.3899C120.405 92.133 122.337 92.4045 124.091 93.1745C125.845 93.9446 127.353 95.1835 128.45 96.7551C129.547 98.3268 130.191 100.17 130.31 102.084C130.757 104.681 130.357 107.353 129.169 109.705C126.653 114.238 121.191 115.809 118.698 119.87C120.915 124.123 115.796 126.738 114.323 122.744C111.321 114.928 121.936 112.908 124.959 107.405C126.878 103.141 124.181 94.9297 118.057 97.099ZM100.864 109.703C101.093 108.292 100.901 105.186 99.3529 104.269C98.8148 105.87 98.9179 108.845 100.685 109.804L100.864 109.703ZM114.302 106.484C114.812 106.145 115.226 105.682 115.507 105.138C115.787 104.594 115.924 103.987 115.904 103.375C115.884 102.762 115.708 102.166 115.393 101.64C115.078 101.115 114.634 100.679 114.104 100.374C113.576 101.315 113.304 102.377 113.314 103.456C113.323 104.534 113.614 105.592 114.158 106.524L114.302 106.484Z" fill="white"/>
<path fill-rule="evenodd" clip-rule="evenodd" d="M113.017 139.633C115.375 139.579 117.721 139.291 120.022 138.773C122.504 138.393 127.053 137.076 127.69 140.111C128.327 143.146 122.239 145.253 119.728 146.832L114.921 149.827C113.029 151.027 108.663 154.676 107.724 150.741C106.841 147.567 112.127 146.667 114.229 144.735C111.088 144.418 101.021 148.409 102.421 142.839C102.877 141.314 105.462 139.818 107.046 138.444L111.922 134.395C108.176 134.504 101.189 138.778 100.313 134.515C99.4975 131.582 105.262 130.911 109.398 129.968C111.799 129.3 114.201 128.632 116.122 128.098C119.436 127.176 123.009 125.509 123.886 128.477C124.763 131.445 120.512 133.093 118.963 134.405C117.413 135.717 115.303 137.806 113.017 139.633Z" fill="#323232"/>
<path fill-rule="evenodd" clip-rule="evenodd" d="M85.0896 17.6315C89.1687 14.9948 89.7312 22.9716 90.5475 26.837C91.875 33.0987 93.36 39.3684 94.7945 46.0147C95.7038 49.2845 96.8272 53.3236 93.9399 53.9194C91.0526 54.5152 90.6442 50.07 89.8601 46.5064C88.2706 39.4887 87.2264 33.8735 85.7117 26.9386C85.04 23.9654 83.0194 18.9325 85.0896 17.6315Z" fill="#E52629" fill-opacity="0.24"/>
<path fill-rule="evenodd" clip-rule="evenodd" d="M99.5496 32.415C103.429 30.9216 103.218 38.9064 103.572 42.2269C103.926 45.5474 104.593 49.2472 103.046 50.1956C102.747 50.3705 102.417 50.4826 102.074 50.5252C101.73 50.5677 101.382 50.5398 101.05 50.443C100.718 50.3462 100.409 50.1827 100.142 49.9624C99.8756 49.7421 99.6564 49.4697 99.4983 49.1618C98.8245 46.524 98.5042 43.8083 98.546 41.0863C98.1462 37.4158 96.9055 33.513 99.5496 32.415Z" fill="#E52629" fill-opacity="0.24"/>
<path fill-rule="evenodd" clip-rule="evenodd" d="M153.38 32.4674C155.071 31.4789 156.547 31.9491 157.066 33.2554C158.049 35.6756 153.6 39.3996 152.467 40.9063L138.22 58.3373C136.908 59.9455 133.294 63.6962 132.169 60.0204C131.62 58.0489 135.634 53.8762 136.669 52.7595L142.104 46.0676C145.958 41.3178 149.248 36.7764 153.07 32.6571C153.214 32.617 153.201 32.5689 153.38 32.4674Z" fill="#E52629" fill-opacity="0.24"/>
<path fill-rule="evenodd" clip-rule="evenodd" d="M60.6036 70.8062C61.1777 70.486 61.8198 70.3075 62.4767 70.2852C64.7207 71.3709 66.6324 73.0399 68.012 75.1176C68.1389 75.5181 68.1607 75.9444 68.0751 76.3556C67.9895 76.7667 67.7995 77.1489 67.5235 77.4651C67.2475 77.7813 66.8946 78.021 66.499 78.161C66.1035 78.301 65.6786 78.3366 65.2651 78.2645C63.0478 77.1388 61.1454 75.478 59.7298 73.4321C59.586 72.9575 59.5928 72.4501 59.7493 71.9797C59.9058 71.5094 60.2043 71.0994 60.6036 70.8062Z" fill="#E52629" fill-opacity="0.24"/>
<path fill-rule="evenodd" clip-rule="evenodd" d="M15.3187 88.7507C15.3187 88.7507 15.3187 88.7506 15.6549 88.6571C19.9933 88.2668 24.3556 88.214 28.7026 88.4993L54.7846 88.1354C58.23 88.0579 66.0807 86.7034 66.7366 89.9918C67.8599 94.0309 57.2107 92.9518 54.6834 92.9813C43.1009 93.1979 32.1695 93.337 20.3068 93.4762C17.9849 93.5003 14.9427 93.7248 14.2691 92.0472C14.0906 91.769 13.9756 91.4548 13.9324 91.1271C13.8891 90.7993 13.9187 90.4662 14.019 90.1513C14.1192 89.8365 14.2877 89.5476 14.5124 89.3055C14.737 89.0634 15.0123 88.8739 15.3187 88.7507Z" fill="#E52629" fill-opacity="0.24"/>
<path fill-rule="evenodd" clip-rule="evenodd" d="M54.5736 78.3367C56.3265 77.383 58.537 78.6331 60.7099 79.3757C62.8827 80.1183 65.2289 80.5537 65.9128 81.7104C66.229 82.2816 66.309 82.9538 66.1358 83.5831C65.9625 84.2123 65.5497 84.7484 64.986 85.0764C62.9182 86.0141 60.1016 84.2591 58.6121 83.7409C57.1226 83.2226 54.0134 83.2066 53.4007 80.6314C53.2828 80.1714 53.337 79.6842 53.553 79.2615C53.769 78.8389 54.132 78.5099 54.5736 78.3367Z" fill="#E52629" fill-opacity="0.24"/>
<path fill-rule="evenodd" clip-rule="evenodd" d="M146.976 60.9791C148.465 60.565 150.213 60.3379 150.518 62.7394C150.824 65.141 148.409 65.7608 146.611 67.2969C144.813 68.8329 140.53 73.3397 139.167 69.3674C138.591 67.2997 140.993 65.6995 142.212 64.6871C143.646 63.2646 145.245 62.0196 146.976 60.9791Z" fill="#E52629" fill-opacity="0.24"/>
<path fill-rule="evenodd" clip-rule="evenodd" d="M162.055 82.6354C163.304 82.2881 165.417 81.7003 165.928 84.0965C166.439 86.4927 161.498 88.0743 158.805 89.1857C156.113 90.297 151.151 92.9204 150.13 89.9926C149.108 87.0648 153.341 86.095 155.518 85.1787C157.695 84.2623 159.776 83.3727 162.055 82.6354Z" fill="#E52629" fill-opacity="0.24"/>
<path fill-rule="evenodd" clip-rule="evenodd" d="M57.1499 128.906C58.9483 128.198 60.8155 127.678 62.7214 127.357C65.2671 126.649 69.5174 125 70.7916 126.977C72.8725 130.18 68.2106 130.907 65.0005 131.644C61.7903 132.382 57.7509 134.23 56.4152 132.219C56.0978 131.675 55.997 131.032 56.1333 130.418C56.2695 129.804 56.6327 129.264 57.1499 128.906Z" fill="#E52629" fill-opacity="0.24"/>
<path fill-rule="evenodd" clip-rule="evenodd" d="M72.2324 134.761C73.9159 133.93 75.1143 133.96 75.7264 135.603C76.6218 137.892 73.2499 140.28 71.4921 141.961C67.1577 145.912 63.7061 148.944 59.7772 152.678C58.2195 154.148 52.4853 160.508 51.1748 155.796C50.6131 153.777 54.1772 151.335 55.5695 150.015C59.7039 146.275 62.4965 143.478 66.3694 139.914C68.0998 137.957 70.0696 136.226 72.2324 134.761Z" fill="#E52629" fill-opacity="0.24"/>
<path fill-rule="evenodd" clip-rule="evenodd" d="M147.623 116.332C149.219 115.371 151.998 116.618 153.706 117.179C157.013 118.28 160.737 119.575 164.469 120.713C166.86 121.498 168.899 121.76 169.402 123.382C170.739 128.19 164.53 125.773 162.486 125.305C158.973 124.21 155.42 122.971 151.675 121.785C150.076 121.245 147.223 120.847 146.651 119.348C146.503 119.089 146.411 118.802 146.38 118.506C146.349 118.209 146.381 117.909 146.472 117.625C146.564 117.342 146.713 117.08 146.912 116.857C147.11 116.635 147.352 116.456 147.623 116.332Z" fill="#E52629" fill-opacity="0.24"/>
</svg>
