<svg display="none" xmlns="http://www.w3.org/2000/svg">
    <symbol id="icon-logo" width="150" height="36" viewBox="0 0 150 36" fill="none" xmlns="http://www.w3.org/2000/svg">
        <path d="M53.062 22.4064V20.7548H54.7519C55.3873 20.7548 55.8153 20.6526 56.0359 20.4502C56.2565 20.2478 56.3646 19.8126 56.3646 19.1468V3.2575C56.3646 2.58075 56.2521 2.13685 56.0271 1.93013C55.7998 1.7234 55.3763 1.62113 54.7519 1.62113H53.062V0H72.7849L72.968 7.6661H71.4634C70.8281 5.47485 69.9258 3.919 68.7521 2.99855C67.5806 2.08027 65.9128 1.62113 63.753 1.62113C63.036 1.62113 62.5639 1.71688 62.3322 1.91489C62.1028 2.11291 61.9859 2.56117 61.9859 3.2575V9.81601H65.6105C68.9286 9.81601 71.4303 10.3752 73.1136 11.4915C74.7969 12.6078 75.6397 14.2616 75.6397 16.4529C75.6397 18.4026 74.8278 19.8801 73.2041 20.8897C71.5804 21.9016 69.2066 22.4064 66.0849 22.4064H53.062ZM61.9859 11.5438V18.5309C61.9859 19.4884 62.1182 20.0977 62.3852 20.3457C62.6521 20.6003 63.3272 20.7265 64.4126 20.7265C66.4092 20.7265 67.8057 20.3675 68.5977 19.6516C69.3919 18.9335 69.789 17.7323 69.789 16.0459C69.789 14.4792 69.3478 13.339 68.4675 12.6231C67.5873 11.905 66.1643 11.5459 64.1964 11.5459H61.9859V11.5438Z"
              fill="#E52629"/>
        <path d="M92.969 18.8312V18.9379C92.969 19.3818 93.0594 19.7038 93.2381 19.9062C93.419 20.1107 93.7058 20.2108 94.1051 20.2108C94.2993 20.2108 94.5067 20.1564 94.7273 20.0498C94.9457 19.9432 95.0979 19.891 95.1773 19.891C95.3009 19.891 95.3979 19.9323 95.4707 20.0128C95.5413 20.0933 95.5788 20.2108 95.5788 20.361C95.5788 20.9986 95.206 21.5752 94.4625 22.0974C93.7213 22.6175 92.8234 22.8765 91.7688 22.8765C90.979 22.8765 90.3084 22.6784 89.7546 22.278C89.2031 21.8798 88.881 21.3619 88.7883 20.7244C87.9698 21.4229 87.0058 21.9647 85.9027 22.352C84.7974 22.7415 83.6612 22.9374 82.4942 22.9374C80.9984 22.9374 79.8314 22.6132 78.9975 21.9669C78.1635 21.3206 77.7466 20.411 77.7466 19.2403C77.7466 17.6736 78.5739 16.4224 80.2263 15.4736C81.8809 14.5293 84.515 13.8199 88.1287 13.3477V11.6656C88.1287 10.5733 87.9081 9.80078 87.4691 9.34817C87.0278 8.89338 86.2954 8.6649 85.2717 8.6649C84.6055 8.6649 84.0451 8.7737 83.5885 8.98912C83.134 9.2089 82.9067 9.45914 82.9067 9.73985C82.9067 9.83124 83.0413 10.038 83.3127 10.36C83.584 10.6821 83.7208 11.0672 83.7208 11.5111C83.7208 12.0965 83.487 12.5687 83.0215 12.9277C82.5538 13.2868 81.9493 13.4652 81.2014 13.4652C80.4138 13.4652 79.774 13.2454 79.2909 12.7993C78.8033 12.3532 78.5606 11.7679 78.5606 11.0411C78.5606 9.82036 79.2004 8.85639 80.48 8.15571C81.7596 7.45503 83.5223 7.10034 85.7659 7.10034C87.0653 7.10034 88.2081 7.2309 89.1921 7.48767C90.176 7.74444 90.9812 8.12524 91.6188 8.63226C92.1196 9.01523 92.4726 9.44826 92.6711 9.92699C92.8719 10.4079 92.9712 11.1608 92.9712 12.1922V18.8312H92.969ZM88.0978 14.8927C86.2138 15.2038 84.8835 15.6434 84.1047 16.207C83.3281 16.7727 82.9376 17.5757 82.9376 18.6158C82.9376 19.2425 83.1185 19.7452 83.4737 20.1238C83.8333 20.5046 84.3032 20.6917 84.8857 20.6917C85.7571 20.6917 86.5094 20.3566 87.1448 19.6908C87.7801 19.0249 88.0978 18.1915 88.0978 17.1905V16.6922V14.8927Z"
              fill="#E52629"/>
        <path d="M119.496 0V1.62113H117.881C117.267 1.62113 116.853 1.71688 116.636 1.91489C116.42 2.11291 116.314 2.56117 116.314 3.2575V20.757H119.496V29.3936H117.942C117.371 26.765 116.504 24.9458 115.339 23.9318C114.177 22.9156 112.321 22.4086 109.771 22.4086H105.623C103.064 22.4086 101.202 22.9156 100.04 23.9318C98.8792 24.948 98.0099 26.765 97.4364 29.3936H95.9009V20.757H99.0358C100.243 18.8682 101.191 16.5116 101.875 13.6893C102.563 10.867 102.905 7.89894 102.905 4.78941C102.905 3.43593 102.755 2.56987 102.451 2.19125C102.149 1.81262 101.546 1.62331 100.646 1.62331H99.5697V0H119.496ZM105.149 1.62113C105.048 6.09502 104.695 9.8617 104.09 12.9234C103.486 15.985 102.59 18.5962 101.403 20.757H110.68V1.62113H105.149Z"
              fill="#E52629"/>
        <path d="M125.624 2.48501V17.1949C125.624 18.5092 125.891 19.4296 126.423 19.9541C126.955 20.4807 127.881 20.7505 129.203 20.7722V22.4086H120.14V20.7722C121.4 20.7113 122.269 20.4263 122.75 19.9149C123.231 19.4057 123.471 18.4178 123.471 16.9533V16.7858V3.28578C123.471 2.61122 123.356 2.16296 123.125 1.94536C122.895 1.72776 122.487 1.62113 121.905 1.62113H120.308V0H130.46L135.376 13.4064L140.03 0H150V1.62113H148.418C147.805 1.62113 147.384 1.7234 147.159 1.93013C146.936 2.13685 146.823 2.58075 146.823 3.25749V19.1489C146.823 19.8257 146.931 20.2631 147.152 20.4589C147.373 20.6569 147.796 20.757 148.418 20.757H150V22.4086H138.263V20.757H139.677C140.313 20.757 140.741 20.6547 140.961 20.4524C141.18 20.25 141.29 19.8148 141.29 19.1489V2.36098L134.456 22.4064H132.887L125.624 2.48501Z"
              fill="#E52629"/>
        <path d="M14.3245 7.68663L14.3981 7.56396L14.3245 7.68663Z" fill="#E52629"/>
        <path d="M43.0553 28.7234L11.7192 31.8568L10.4507 36L45.7445 32.3856L43.0553 28.7234Z" fill="#E52629"/>
        <path d="M13.2391 26.5475L11.9993 30.5927L42.1903 27.5158L39.5782 23.9341L13.2391 26.5475Z" fill="#E52629"/>
        <path d="M14.7568 21.2379L13.5479 25.183L38.6383 22.6436L36.1012 19.1467L14.7568 21.2379Z" fill="#E52629"/>
        <path d="M16.277 15.9283L15.0967 19.7755L35.0843 17.7714L32.6245 14.3594L16.277 15.9283Z" fill="#E52629"/>
        <path d="M17.7947 10.619L16.6475 14.366L31.5301 12.8994L29.1453 9.57446L17.7947 10.619Z" fill="#E52629"/>
        <path d="M19.3148 5.3096L18.1963 8.95877L27.9783 8.02744L25.6685 4.78735L19.3148 5.3096Z" fill="#E52629"/>
        <path d="M20.8327 0L19.7451 3.55126L24.4243 3.1574L22.1895 0H20.8327Z" fill="#E52629"/>
        <path d="M2.21938 27.8813L0 31.1802L10.4505 36.0001L11.7168 31.8678L2.21938 27.8813Z" fill="#E52629"/>
        <path d="M5.12716 23.2334L2.9519 26.5148L11.9993 30.5927L13.2347 26.5562L5.12716 23.2334Z" fill="#E52629"/>
        <path d="M8.03053 18.5876L5.90381 21.8495L13.5481 25.1832L14.7571 21.2446L8.03053 18.5876Z" fill="#E52629"/>
        <path d="M10.9381 13.9397L8.85767 17.182L15.0988 19.7758L16.2747 15.9329L10.9381 13.9397Z" fill="#E52629"/>
        <path d="M13.8434 9.2937L11.8093 12.5142L16.6474 14.366L17.7946 10.6211L13.8434 9.2937Z" fill="#E52629"/>
        <path d="M16.749 4.64575L14.7612 7.84667L18.1962 8.95861L19.3147 5.31161L16.749 4.64575Z" fill="#E52629"/>
        <path d="M19.6545 0L17.7131 3.18133L19.745 3.55126L20.8326 0H19.6545Z" fill="#E52629"/>
        <path d="M57.9354 33.565L58.1869 33.6825C58.0568 34.0176 57.8538 34.2766 57.5802 34.4594C57.3067 34.64 56.9846 34.7357 56.6073 34.7357C56.0977 34.7357 55.7006 34.5965 55.416 34.3245C55.1292 34.0503 54.988 33.6804 54.988 33.2169C54.988 32.7164 55.1579 32.3051 55.4954 31.9831C55.8352 31.661 56.2808 31.5 56.839 31.5C57.2405 31.5 57.5472 31.5805 57.7612 31.7394C57.9729 31.9004 58.081 32.0941 58.081 32.3204C58.081 32.4857 58.0347 32.6163 57.9399 32.712C57.8472 32.8078 57.7236 32.8578 57.5714 32.8578C57.4368 32.8578 57.331 32.8208 57.2537 32.7447C57.1765 32.6707 57.1368 32.5728 57.1368 32.4531C57.1368 32.3486 57.1809 32.229 57.267 32.0897C57.3023 32.0331 57.3221 31.994 57.3221 31.97C57.3221 31.9265 57.289 31.8873 57.2229 31.8569C57.128 31.8025 57.0022 31.7764 56.85 31.7764C56.5676 31.7764 56.3603 31.8656 56.2345 32.044C56.0646 32.279 55.9808 32.6359 55.9808 33.1124C55.9808 33.589 56.0646 33.9241 56.2345 34.1177C56.4044 34.3114 56.6206 34.4093 56.8875 34.4093C57.0993 34.4093 57.2979 34.3397 57.4832 34.2004C57.6663 34.0568 57.8185 33.8457 57.9354 33.565Z"
              fill="#E52629"/>
        <path d="M63.5723 33.1712H61.4588C61.4632 33.589 61.5493 33.8958 61.7147 34.0938C61.878 34.2918 62.0898 34.3897 62.3479 34.3897C62.531 34.3897 62.7075 34.3397 62.8707 34.2374C63.034 34.1373 63.2061 33.9523 63.3782 33.6847L63.612 33.8283C63.4311 34.146 63.2215 34.3723 62.9855 34.5094C62.7494 34.6443 62.4626 34.714 62.1251 34.714C61.6309 34.714 61.2316 34.566 60.9271 34.27C60.6205 33.9741 60.4705 33.5933 60.4705 33.1276C60.4705 32.6663 60.6249 32.279 60.9315 31.9656C61.2382 31.6545 61.6154 31.4978 62.0611 31.4978C62.3699 31.4978 62.6369 31.5609 62.8597 31.6849C63.0825 31.809 63.2546 31.9939 63.3782 32.2333C63.5017 32.4748 63.5657 32.7882 63.5723 33.1712ZM61.461 32.8817H62.467C62.5619 32.8817 62.6281 32.86 62.67 32.8121C62.7097 32.7642 62.7295 32.6816 62.7295 32.5575C62.7295 32.3116 62.6722 32.1223 62.5597 31.9852C62.445 31.8525 62.2994 31.785 62.1251 31.785C61.9177 31.785 61.7588 31.8743 61.6485 32.057C61.5382 32.242 61.4743 32.5162 61.461 32.8817Z"
              fill="#E52629"/>
        <path d="M66.021 31.6828L67.2476 31.6044C67.2962 31.7981 67.3248 31.9896 67.3359 32.1811C67.4638 31.9809 67.6249 31.8242 67.8234 31.7132C68.022 31.6023 68.2426 31.5479 68.4853 31.5479C68.8758 31.5479 69.189 31.6849 69.4295 31.9591C69.67 32.2333 69.7891 32.6185 69.7891 33.1189C69.7891 33.4671 69.7317 33.763 69.6148 34.0024C69.4979 34.2461 69.339 34.4267 69.1295 34.5508C68.9221 34.6726 68.6816 34.7357 68.4036 34.7357C68.183 34.7357 67.9867 34.6857 67.8146 34.5877C67.6425 34.4876 67.4815 34.3288 67.3337 34.1134V35.1774C67.3337 35.3167 67.3447 35.4059 67.3645 35.4473C67.3866 35.4843 67.4263 35.5147 67.4859 35.5343C67.5432 35.5561 67.6624 35.5648 67.8389 35.5691V35.8738H66.0188V35.5691H66.1159C66.2284 35.5691 66.3056 35.5604 66.3431 35.5387C66.3806 35.5169 66.4137 35.4843 66.4336 35.4364C66.449 35.4016 66.4556 35.3167 66.4556 35.1796V32.3639C66.4556 32.2268 66.4446 32.1332 66.4225 32.0875C66.4027 32.044 66.3696 32.0113 66.3255 31.9874C66.2813 31.97 66.1776 31.9569 66.0188 31.9504V31.6828H66.021ZM68.0837 31.9874C67.8742 31.9874 67.6977 32.0875 67.5521 32.2855C67.4065 32.4835 67.3337 32.7708 67.3337 33.1516C67.3337 33.528 67.4109 33.8153 67.5631 34.0133C67.7175 34.2135 67.8918 34.3136 68.0904 34.3136C68.2823 34.3136 68.4389 34.2265 68.5559 34.0546C68.7125 33.8283 68.7897 33.5215 68.7897 33.1363C68.7897 32.7838 68.7279 32.5053 68.6022 32.2964C68.4764 32.0919 68.3044 31.9874 68.0837 31.9874Z"
              fill="#E52629"/>
        <path d="M72.1475 34.6399V34.344H72.3482C72.5291 34.344 72.6174 34.2722 72.6174 34.1307V32.1745C72.6174 32.033 72.5291 31.9612 72.3482 31.9612H72.1475V31.6653H74.0756C74.3779 31.6653 74.6139 31.6892 74.7816 31.7327C74.9493 31.7784 75.0883 31.8633 75.1964 31.9852C75.3045 32.107 75.3596 32.2485 75.3596 32.4117C75.3596 32.6162 75.2736 32.7772 75.1037 32.8969C74.9316 33.0166 74.722 33.0862 74.4705 33.1036C75.1346 33.182 75.4677 33.4344 75.4677 33.8609C75.4677 34.0937 75.3795 34.2787 75.2008 34.4223C75.0221 34.5681 74.6625 34.6399 74.122 34.6399H72.1475ZM73.4734 32.9731H73.8153C74.0403 32.9731 74.208 32.9317 74.3183 32.8469C74.4286 32.7642 74.486 32.6314 74.486 32.4552C74.486 32.1266 74.2852 31.9612 73.8859 31.9612H73.7315C73.63 31.9612 73.5616 31.9786 73.5241 32.02C73.4888 32.0591 73.4711 32.1266 73.4711 32.2202V32.9731H73.4734ZM73.8903 34.344C74.1727 34.344 74.358 34.2961 74.4485 34.2047C74.5389 34.1111 74.583 33.9849 74.583 33.8239C74.583 33.4409 74.3558 33.2472 73.8991 33.2472H73.4734V34.1329C73.4734 34.2743 73.5594 34.3461 73.7337 34.3461H73.8903V34.344Z"
              fill="#E52629"/>
        <path d="M77.8877 31.6654L79.2268 31.6044V34.133C79.2268 34.2004 79.2489 34.2526 79.293 34.2896C79.3371 34.3266 79.4033 34.3462 79.4938 34.3462H79.6967V34.6422H77.8855V34.3462H78.0863C78.1944 34.3462 78.2694 34.3223 78.3135 34.2722C78.3576 34.2244 78.3797 34.1395 78.3797 34.0176V32.2964C78.3797 32.1876 78.3488 32.1049 78.2848 32.044C78.2208 31.9852 78.1348 31.9569 78.0223 31.9569H77.8877V31.6654ZM78.715 29.9485C78.8584 29.9485 78.982 29.9985 79.0856 30.1008C79.1893 30.2031 79.2401 30.3249 79.2401 30.4664C79.2401 30.6122 79.1893 30.7319 79.0856 30.8341C78.982 30.9364 78.8584 30.9864 78.715 30.9864C78.5694 30.9864 78.4459 30.9364 78.3422 30.8341C78.2385 30.7319 78.1877 30.61 78.1877 30.4686C78.1877 30.3249 78.2363 30.2031 78.3422 30.103C78.4459 30.0007 78.5694 29.9485 78.715 29.9485Z"
              fill="#E52629"/>
        <path d="M84.9938 33.565L85.2453 33.6825C85.1151 34.0176 84.9122 34.2766 84.6386 34.4594C84.365 34.64 84.0407 34.7357 83.6657 34.7357C83.1561 34.7357 82.759 34.5965 82.4744 34.3245C82.1876 34.0503 82.0464 33.6804 82.0464 33.2169C82.0464 32.7164 82.2141 32.3051 82.5538 31.9831C82.8936 31.661 83.3414 31.5 83.8995 31.5C84.3011 31.5 84.6077 31.5805 84.8217 31.7394C85.0335 31.9004 85.1394 32.0941 85.1394 32.3204C85.1394 32.4857 85.0931 32.6163 85.0004 32.712C84.9056 32.8078 84.7842 32.8578 84.632 32.8578C84.4974 32.8578 84.3915 32.8208 84.3121 32.7447C84.2349 32.6707 84.1952 32.5728 84.1952 32.4531C84.1952 32.3486 84.2393 32.229 84.3253 32.0897C84.3606 32.0331 84.3783 31.994 84.3783 31.97C84.3783 31.9265 84.3474 31.8873 84.279 31.8569C84.1841 31.8025 84.0606 31.7764 83.9062 31.7764C83.6238 31.7764 83.4186 31.8656 83.2907 32.044C83.1208 32.279 83.0347 32.6359 83.0347 33.1124C83.0347 33.589 83.1208 33.9241 83.2884 34.1177C83.4583 34.3114 83.6767 34.4093 83.9437 34.4093C84.1555 34.4093 84.354 34.3397 84.5393 34.2004C84.7224 34.0568 84.8747 33.8457 84.9938 33.565Z"
              fill="#E52629"/>
        <path d="M88.7753 32.9339H90.1409V32.1745C90.1409 32.033 90.0527 31.9612 89.874 31.9612H89.671V31.6653H91.458V31.9612H91.2506C91.0741 31.9612 90.9859 32.0309 90.9859 32.1745V34.1307C90.9859 34.2722 91.0741 34.344 91.2506 34.344H91.458V34.6399H89.671V34.344H89.874C90.0505 34.344 90.1409 34.2722 90.1409 34.1307V33.2929H88.7753V34.1329C88.7753 34.2743 88.8636 34.3461 89.0423 34.3461H89.2452V34.6421H87.4561V34.3461H87.659C87.8377 34.3461 87.926 34.2743 87.926 34.1329V32.1766C87.926 32.0352 87.8377 31.9634 87.659 31.9634H87.4561V31.6675H89.2452V31.9634H89.0423C88.8636 31.9634 88.7753 32.033 88.7753 32.1766V32.9339Z"
              fill="#E52629"/>
        <path d="M97.2888 34.27L97.4234 34.4985C97.2932 34.5877 97.1741 34.6487 97.0704 34.6835C96.9667 34.7183 96.8498 34.7335 96.7263 34.7335C96.541 34.7335 96.3931 34.6944 96.2784 34.6182C96.1659 34.5399 96.0622 34.3941 95.9651 34.1808C95.7467 34.3941 95.5504 34.5399 95.3761 34.6182C95.2018 34.6944 95.0055 34.7335 94.7871 34.7335C94.4848 34.7335 94.2466 34.6639 94.0789 34.5268C93.909 34.3875 93.8252 34.2113 93.8252 34.0002C93.8252 33.6803 93.9818 33.4258 94.2951 33.2299C94.5444 33.0776 95.0981 32.9253 95.9497 32.7751V32.3464C95.9497 32.1767 95.8924 32.0375 95.7776 31.9308C95.6629 31.8242 95.5107 31.772 95.3188 31.772C95.1754 31.772 95.0452 31.8024 94.9349 31.8655C94.8599 31.9047 94.8224 31.9461 94.8224 31.9852C94.8224 32.007 94.8378 32.0375 94.8643 32.081C94.9261 32.1767 94.9547 32.2681 94.9547 32.3639C94.9547 32.4835 94.9128 32.5771 94.8334 32.6511C94.7562 32.7251 94.6481 32.7599 94.5135 32.7599C94.3723 32.7599 94.2598 32.7229 94.1738 32.6402C94.0855 32.5619 94.0436 32.4596 94.0436 32.3334C94.0436 32.1288 94.1561 31.9482 94.3833 31.7916C94.6635 31.5957 95.0143 31.4978 95.4335 31.4978C95.7489 31.4978 96.0291 31.5457 96.274 31.6458C96.4306 31.7067 96.5586 31.8133 96.6557 31.9678C96.7527 32.1223 96.8013 32.3095 96.8013 32.5336V34.0416C96.8013 34.1569 96.8233 34.2418 96.8653 34.2896C96.9072 34.3419 96.9667 34.3658 97.0417 34.3658C97.1057 34.368 97.1874 34.3353 97.2888 34.27ZM95.9497 33.0537C95.4886 33.1168 95.1776 33.2125 95.0165 33.3387C94.8555 33.4671 94.7738 33.6368 94.7738 33.8457C94.7738 33.9937 94.8135 34.109 94.8886 34.1895C94.9658 34.2679 95.0739 34.3092 95.2107 34.3092C95.4246 34.3092 95.5989 34.2331 95.7401 34.0829C95.8791 33.9349 95.9519 33.7282 95.9519 33.4693V33.0537H95.9497Z"
              fill="#E52629"/>
        <path d="M105.035 34.3439V34.6398H103.245V34.3439H103.448C103.625 34.3439 103.715 34.2721 103.715 34.1306V32.1679C103.715 32.0264 103.625 31.9546 103.448 31.9546H103.245V31.6652H105.035V31.9546H104.827C104.719 31.9546 104.648 31.9764 104.615 32.0221C104.58 32.0678 104.562 32.1396 104.562 32.2418V32.986H104.896C105.129 32.986 105.279 32.949 105.348 32.8729C105.418 32.7967 105.482 32.627 105.54 32.3659C105.61 32.0612 105.703 31.8567 105.822 31.7566C105.939 31.6565 106.085 31.6064 106.259 31.6064C106.449 31.6064 106.601 31.6587 106.713 31.7609C106.828 31.8654 106.883 31.9916 106.883 32.1374C106.883 32.2636 106.846 32.3659 106.769 32.4507C106.691 32.5334 106.585 32.5769 106.449 32.5769C106.332 32.5769 106.232 32.5421 106.151 32.4681C106.067 32.3985 106.027 32.3071 106.027 32.2027C106.027 32.133 106.049 32.0678 106.089 32.0025C106.109 31.9742 106.118 31.9524 106.118 31.935C106.118 31.9067 106.107 31.8937 106.082 31.8937C106.043 31.8937 105.994 31.922 105.943 31.9807C105.888 32.0416 105.82 32.2527 105.734 32.6205C105.699 32.7728 105.659 32.8772 105.613 32.9316C105.564 32.986 105.478 33.0361 105.35 33.0796C105.84 33.1275 106.14 33.3081 106.246 33.6171L106.405 34.0893C106.455 34.2351 106.519 34.3091 106.594 34.3091C106.685 34.3091 106.755 34.1872 106.808 33.9391H107.038C106.967 34.2829 106.861 34.4918 106.716 34.5702C106.574 34.6463 106.409 34.6855 106.221 34.6855C105.866 34.6855 105.639 34.5114 105.542 34.1633L105.418 33.7324C105.324 33.3973 105.112 33.2298 104.785 33.2298H104.565V34.1306C104.565 34.2721 104.653 34.3439 104.829 34.3439H105.035Z"
              fill="#E52629"/>
        <path d="M110.958 31.5C111.295 31.5 111.604 31.574 111.889 31.7176C112.171 31.8634 112.383 32.0484 112.518 32.2812C112.657 32.514 112.725 32.7926 112.725 33.119C112.725 33.639 112.544 34.0394 112.184 34.3158C111.825 34.5943 111.417 34.7357 110.962 34.7357C110.64 34.7357 110.345 34.6618 110.078 34.5203C109.811 34.3767 109.605 34.1852 109.462 33.9415C109.319 33.7021 109.246 33.4258 109.246 33.1211C109.246 32.662 109.409 32.2768 109.733 31.9678C110.058 31.6545 110.466 31.5 110.958 31.5ZM110.978 31.8025C110.755 31.8025 110.576 31.8982 110.444 32.0919C110.314 32.2855 110.245 32.6272 110.245 33.1146C110.245 33.6216 110.311 33.9698 110.442 34.1591C110.572 34.3528 110.75 34.4485 110.971 34.4485C111.2 34.4485 111.381 34.3484 111.52 34.1526C111.662 33.9545 111.73 33.6173 111.73 33.132C111.73 32.6359 111.662 32.2921 111.523 32.0941C111.392 31.9004 111.207 31.8025 110.978 31.8025Z"
              fill="#E52629"/>
        <path d="M117.387 33.6824L118.097 31.6653H119.685V31.9612H119.482C119.306 31.9612 119.215 32.0309 119.215 32.1745V34.1351C119.215 34.2743 119.304 34.3461 119.482 34.3461H119.685V34.6421H117.898V34.3461H118.099C118.276 34.3461 118.366 34.2765 118.368 34.1351V31.822L117.345 34.6421H116.895L115.884 31.8024V34.0567C115.884 34.1525 115.906 34.2243 115.95 34.2743C115.997 34.3222 116.087 34.3483 116.224 34.3483H116.354V34.6442H115.075V34.3483H115.255C115.467 34.3483 115.575 34.2526 115.575 34.0589V32.3246C115.575 32.181 115.553 32.0853 115.514 32.0352C115.474 31.9873 115.392 31.9656 115.273 31.9656H115.048V31.6696H116.689L117.387 33.6824Z"
              fill="#E52629"/>
        <path d="M125.92 31.6653V31.9612H125.717C125.538 31.9612 125.45 32.0309 125.45 32.1745V34.1307C125.45 34.2722 125.538 34.344 125.717 34.344H125.92V34.6399H124.133V34.344H124.34C124.517 34.344 124.603 34.2722 124.603 34.1307V32.0004H123.308V34.1307C123.308 34.2722 123.396 34.344 123.575 34.344H123.78V34.6399H121.993V34.344H122.196C122.373 34.344 122.463 34.2722 122.463 34.1307V32.1745C122.463 32.033 122.373 31.9612 122.196 31.9612H121.993V31.6653H125.92Z"
              fill="#E52629"/>
        <path d="M131.751 34.27L131.885 34.4985C131.755 34.5877 131.636 34.6487 131.532 34.6835C131.429 34.7183 131.314 34.7335 131.188 34.7335C131.005 34.7335 130.855 34.6944 130.74 34.6182C130.626 34.5399 130.524 34.3941 130.427 34.1808C130.206 34.3941 130.012 34.5399 129.838 34.6182C129.664 34.6944 129.47 34.7335 129.249 34.7335C128.947 34.7335 128.708 34.6639 128.541 34.5268C128.371 34.3875 128.287 34.2113 128.287 34.0002C128.287 33.6803 128.444 33.4258 128.757 33.2299C129.009 33.0776 129.558 32.9253 130.409 32.7751V32.3464C130.409 32.1767 130.354 32.0375 130.24 31.9308C130.125 31.8242 129.973 31.772 129.781 31.772C129.635 31.772 129.507 31.8024 129.395 31.8655C129.32 31.9047 129.282 31.9461 129.282 31.9852C129.282 32.007 129.298 32.0375 129.324 32.081C129.386 32.1767 129.414 32.2681 129.414 32.3639C129.414 32.4835 129.373 32.5771 129.295 32.6511C129.216 32.7251 129.108 32.7599 128.975 32.7599C128.834 32.7599 128.72 32.7229 128.633 32.6402C128.547 32.5619 128.506 32.4596 128.506 32.3334C128.506 32.1288 128.616 31.9482 128.843 31.7916C129.123 31.5957 129.474 31.4978 129.893 31.4978C130.209 31.4978 130.489 31.5457 130.734 31.6458C130.89 31.7067 131.018 31.8133 131.115 31.9678C131.212 32.1223 131.261 32.3095 131.261 32.5336V34.0416C131.261 34.1569 131.283 34.2418 131.325 34.2896C131.369 34.3419 131.426 34.3658 131.501 34.3658C131.568 34.368 131.649 34.3353 131.751 34.27ZM130.409 33.0537C129.951 33.1168 129.637 33.2125 129.476 33.3387C129.315 33.4671 129.234 33.6368 129.234 33.8457C129.234 33.9937 129.271 34.109 129.348 34.1895C129.425 34.2679 129.531 34.3092 129.67 34.3092C129.884 34.3092 130.059 34.2331 130.2 34.0829C130.341 33.9349 130.409 33.7282 130.409 33.4693V33.0537Z"
              fill="#E52629"/>
        <path d="M135.353 32.9339H136.719V32.1745C136.719 32.033 136.629 31.9612 136.452 31.9612H136.249V31.6653H138.036V31.9612H137.829C137.652 31.9612 137.564 32.0309 137.564 32.1745V34.1307C137.564 34.2722 137.652 34.344 137.829 34.344H138.036V34.6399H136.249V34.344H136.452C136.629 34.344 136.719 34.2722 136.719 34.1307V33.2929H135.353V34.1329C135.353 34.2743 135.444 34.3461 135.62 34.3461H135.823V34.6421H134.036V34.3461H134.239C134.416 34.3461 134.506 34.2743 134.506 34.1329V32.1766C134.506 32.0352 134.416 31.9634 134.239 31.9634H134.036V31.6675H135.823V31.9634H135.62C135.444 31.9634 135.353 32.033 135.353 32.1766V32.9339Z"
              fill="#E52629"/>
        <path d="M140.447 31.6654L141.786 31.6044V34.133C141.786 34.2004 141.808 34.2526 141.853 34.2896C141.897 34.3266 141.963 34.3462 142.053 34.3462H142.256V34.6422H140.447V34.3462H140.648C140.756 34.3462 140.831 34.3223 140.875 34.2722C140.919 34.2244 140.944 34.1395 140.944 34.0176V32.2964C140.944 32.1876 140.913 32.1049 140.849 32.044C140.785 31.9852 140.697 31.9569 140.586 31.9569H140.452V31.6654H140.447ZM141.275 29.9485C141.418 29.9485 141.542 29.9985 141.643 30.1008C141.747 30.2031 141.8 30.3249 141.8 30.4664C141.8 30.6122 141.749 30.7319 141.643 30.8341C141.539 30.9364 141.416 30.9864 141.275 30.9864C141.127 30.9864 141.003 30.9364 140.9 30.8341C140.796 30.7319 140.745 30.61 140.745 30.4686C140.745 30.3249 140.796 30.2031 140.9 30.103C141.005 30.0007 141.129 29.9485 141.275 29.9485Z"
              fill="#E52629"/>
        <path d="M146.077 33.2364C145.29 33.1602 144.895 32.8947 144.895 32.4399C144.895 32.2202 144.983 32.0374 145.16 31.8894C145.336 31.7393 145.676 31.6653 146.181 31.6653H148.111V31.9612H147.908C147.73 31.9612 147.641 32.0309 147.641 32.1745V34.1307C147.641 34.2721 147.73 34.344 147.908 34.344H148.111V34.6399H146.316V34.344H146.53C146.699 34.344 146.788 34.2721 146.788 34.1307V33.3343H146.66C146.309 33.3343 146.091 33.5018 146.007 33.8369L145.916 34.2003C145.861 34.4136 145.779 34.555 145.667 34.6268C145.554 34.6965 145.411 34.7335 145.239 34.7335C145.018 34.7335 144.844 34.6834 144.712 34.5811C144.582 34.4789 144.496 34.2765 144.458 33.974H144.674C144.718 34.1459 144.751 34.2504 144.778 34.2896C144.804 34.3287 144.835 34.3483 144.868 34.3483C144.908 34.3483 144.939 34.3331 144.961 34.3048C144.983 34.2765 145.014 34.2025 145.056 34.0872L145.171 33.763C145.224 33.6106 145.316 33.4953 145.444 33.4148C145.574 33.3343 145.784 33.2755 146.077 33.2364ZM146.788 33.0188V32.2223C146.788 32.1222 146.772 32.0526 146.741 32.0156C146.713 31.9786 146.64 31.9612 146.525 31.9612H146.371C145.971 31.9612 145.771 32.1397 145.771 32.5009C145.771 32.6271 145.795 32.7294 145.848 32.8055C145.899 32.886 145.963 32.9404 146.035 32.9709C146.11 33.0035 146.245 33.0166 146.444 33.0166H146.788V33.0188Z"
              fill="#E52629"/>
    </symbol>
    <symbol id="icon-menu-open" width="24" height="24" viewBox="0 0 24 24"
            style="transform: ;msFilter:;">
        <path d="M4 6h16v2H4zm4 5h12v2H8zm5 5h7v2h-7z"></path>
    </symbol>
    <symbol id="icon-coffee" width="69" height="89" viewBox="0 0 69 89" fill="none" xmlns="http://www.w3.org/2000/svg">
        <path fill-rule="evenodd" clip-rule="evenodd"
              d="M55.8979 20.9272H14.8873C13.4909 20.8458 12.1186 21.3172 11.0671 22.2394C10.0156 23.1616 9.36935 24.4605 9.2681 25.8553L13.6058 84.0568C13.5926 84.374 13.642 84.6907 13.7513 84.9887C13.8606 85.2868 14.0277 85.5603 14.2428 85.7937C14.458 86.0272 14.7171 86.2159 15.0053 86.3491C15.2935 86.4824 15.6052 86.5575 15.9224 86.5701H52.2996C53.6305 86.5701 53.0883 84.3032 53.0883 82.9234L54.8134 76.0479V69.8637L57.8696 56.1634L61.5171 26.2003C61.5115 25.4799 61.3598 24.7681 61.071 24.1081C60.7822 23.4481 60.3624 22.8536 59.837 22.3606C59.3116 21.8676 58.6916 21.4863 58.0145 21.2399C57.3374 20.9935 56.6173 20.8871 55.8979 20.9272Z"
              fill="white"/>
        <path fill-rule="evenodd" clip-rule="evenodd"
              d="M56.4387 45.2894L11.2877 45.7821L13.2594 67.3182H53.777L56.4387 45.2894Z" fill="#808285"/>
        <path d="M14.7878 88.1151H51.165C51.5608 88.1249 51.9543 88.051 52.3196 87.8981C52.6848 87.7452 53.0136 87.5168 53.2845 87.228C53.6926 86.6571 53.9741 86.0057 54.1101 85.3173C54.09 85.4137 54.2461 84.6289 54.1101 85.3173L58.8544 55.8849L62.502 25.6754C62.4639 24.6979 62.2334 23.7375 61.8238 22.8492C61.4141 21.9608 60.8332 21.162 60.1145 20.4983C59.3957 19.8346 58.5532 19.3191 57.6349 18.9813C56.7167 18.6434 55.7408 18.4899 54.7632 18.5295H13.7526C12.775 18.4899 11.7992 18.6434 10.881 18.9813C9.96276 19.3191 9.12014 19.8346 8.40137 20.4983C7.6826 21.162 7.10175 21.9608 6.69208 22.8492C6.28241 23.7375 6.05196 24.6979 6.01389 25.6754L10.3516 83.6305C10.3641 84.8075 10.834 85.9335 11.6618 86.7704C12.4897 87.6073 13.6107 88.0896 14.7878 88.1151ZM49.9327 83.9261H14.7878C14.7878 83.9261 14.7878 83.9261 14.7878 83.5319C14.7878 83.1376 10.4501 25.5768 10.4501 25.5768C10.5611 24.7358 10.9917 23.9697 11.6525 23.4375C12.3132 22.9054 13.1535 22.6479 13.9991 22.7185H55.0097C55.8478 22.6468 56.6817 22.8975 57.3412 23.4195C58.0007 23.9415 58.4362 24.6955 58.5587 25.5275L54.9111 55.0964L50.0805 83.3348C50.0588 82.9573 50.0588 83.7123 50.0805 83.3348L49.9327 83.9261Z"
              fill="#323232"/>
        <path fill-rule="evenodd" clip-rule="evenodd"
              d="M50.7007 2.86975H19.8709C17.619 2.86975 16.6539 4.48032 15.4743 6.49352L14.3484 8.90933C14.3752 9.10065 14.479 9.27508 14.6386 9.39677C14.7981 9.51845 15.0013 9.57816 15.2063 9.56365H55.5262C56.0087 9.56365 56.4377 9.26164 56.4377 8.90933L55.3118 6.5942C54.6683 4.78232 53.1671 2.86975 50.7007 2.86975Z"
              fill="white"/>
        <path d="M21.1454 3.54828C19.0751 3.54828 18.1879 5.12529 17.1035 7.09655L16.0683 9.46204C16.093 9.64937 16.1885 9.82018 16.3352 9.93932C16.4819 10.0585 16.6686 10.1169 16.857 10.1027H53.9243C54.3679 10.1027 54.7622 9.80701 54.7622 9.46204L53.7271 7.19514C52.9384 5.421 51.5582 3.54828 49.488 3.54828H21.1454ZM21.1454 0H49.2909C50.9751 0.0954029 52.5913 0.696804 53.9281 1.72556C55.2649 2.75432 56.26 4.16252 56.7832 5.76593L57.769 7.93433L58.114 8.67352V9.46204C58.1012 10.0251 57.9776 10.5802 57.7502 11.0955C57.5228 11.6108 57.196 12.0762 56.7886 12.4652C56.3812 12.8542 55.9012 13.1592 55.3759 13.3626C54.8506 13.5661 54.2903 13.6641 53.7271 13.651H16.6599C16.0967 13.6641 15.5364 13.5661 15.0111 13.3626C14.4858 13.1592 14.0057 12.8542 13.5983 12.4652C13.1909 12.0762 12.8642 11.6108 12.6367 11.0955C12.4093 10.5802 12.2857 10.0251 12.2729 9.46204V8.72285L12.5687 8.03291L13.6038 5.66735C15.0332 3.05542 16.8077 0 20.9482 0H21.1454Z"
              fill="#323232"/>
        <path fill-rule="evenodd" clip-rule="evenodd"
              d="M58.1092 11.4789H10.5022C6.99318 11.4789 5.52672 14.7983 3.69367 19.0815L1.91301 24.4354C1.91301 24.8046 2.0565 25.1587 2.31187 25.4198C2.56723 25.6808 2.91354 25.8275 3.27468 25.8275H65.5985C65.9597 25.8275 66.306 25.6808 66.5614 25.4198C66.8167 25.1587 66.9602 24.8046 66.9602 24.4354L65.2319 19.5098C63.9226 15.5479 61.6182 11.4789 58.1092 11.4789Z"
              fill="white"/>
        <path d="M11.9286 12.6158C8.62602 12.6158 7.24584 15.6713 5.52064 19.6138L3.84474 24.542C3.84474 24.8818 3.97979 25.2077 4.22013 25.448C4.46048 25.6883 4.7864 25.8233 5.1263 25.8233H63.7833C64.1232 25.8233 64.4491 25.6883 64.6894 25.448C64.9298 25.2077 65.0648 24.8818 65.0648 24.542L63.4382 20.0081C62.2059 16.5091 60.0371 12.7637 56.7345 12.7637L11.9286 12.6158ZM11.9286 9.01831H56.7345C61.0722 9.01831 64.6705 12.468 66.5929 18.8746L68.2195 23.3593V23.9506V24.6405C68.2195 25.9476 67.7002 27.2011 66.7758 28.1253C65.8514 29.0495 64.5976 29.5687 63.2903 29.5687H4.92916C3.62187 29.5687 2.36812 29.0495 1.44373 28.1253C0.519325 27.2011 7.62939e-06 25.9476 7.62939e-06 24.6405V24.0492V23.4578L1.62664 18.5296C3.64759 13.9464 5.81642 9.06757 11.4849 9.06757L11.9286 9.01831Z"
              fill="#323232"/>
    </symbol>
    <symbol id="icon-arrow" width="43" height="38" viewBox="0 0 43 38" fill="none" xmlns="http://www.w3.org/2000/svg">
        <path d="M19.1875 3L3 19M3 19L19.1875 35M3 19H40" stroke="#E52629" stroke-width="6" stroke-linecap="round"
              stroke-linejoin="round"/>
    </symbol>
</svg>